<?xml version="1.0" encoding="UTF-8"?>
<!DOCTYPE svg PUBLIC "-//W3C//DTD SVG 1.1//EN" "http://www.w3.org/Graphics/SVG/1.1/DTD/svg11.dtd">
<!-- Creator: CorelDRAW 2021 (64-Bit) -->
<svg xmlns="http://www.w3.org/2000/svg" xml:space="preserve" width="42mm" height="16mm" version="1.1" style="shape-rendering:geometricPrecision; text-rendering:geometricPrecision; image-rendering:optimizeQuality; fill-rule:evenodd; clip-rule:evenodd"
viewBox="0 0 4200 1600"
 xmlns:xlink="http://www.w3.org/1999/xlink"
 xmlns:xodm="http://www.corel.com/coreldraw/odm/2003">
 <defs>
  <style type="text/css">
   <![CDATA[
    .fil1 {fill:#2B2A29;fill-rule:nonzero}
    .fil0 {fill:url(#id0);fill-rule:nonzero}
    .fil2 {fill:url(#id1);fill-rule:nonzero}
   ]]>
  </style>
  <linearGradient id="id0" gradientUnits="userSpaceOnUse" x1="687.03" y1="73.85" x2="341.74" y2="1273.74">
   <stop offset="0" style="stop-opacity:1; stop-color:#EF7829"/>
   <stop offset="0.278431" style="stop-opacity:1; stop-color:#F0692A"/>
   <stop offset="0.631373" style="stop-opacity:1; stop-color:#F15E2C"/>
   <stop offset="1" style="stop-opacity:1; stop-color:#F15A2C"/>
  </linearGradient>
  <linearGradient id="id1" gradientUnits="userSpaceOnUse" xlink:href="#id0" x1="775.14" y1="-233.42" x2="429.85" y2="966.47">
  </linearGradient>
 </defs>
 <g id="Слой_x0020_1">
  <metadata id="CorelCorpID_0Corel-Layer"/>
  <g id="_2083228010384">
   <g>
    <path class="fil0" d="M128.72 1000.93l179.29 -632.15 275.19 0 -55.66 195.99c-0.59,1.13 -1.07,2.31 -1.43,3.53l-146.11 517.52 136.38 0c-56.96,145.1 -101.54,258.87 -133.74,341.3 -251.56,-2.86 -322.12,-186.58 -260.35,-403.96l6.43 -22.23zm254.91 426.19l331.67 -486.84 -140.73 0 122.43 -311.84c210.13,22.4 308.65,190.89 250.73,394.66 -62.2,219.23 -313.92,404.02 -558.99,404.02l-5.11 0z"/>
   </g>
   <path class="fil1" d="M1339.39 1148.36l69.42 0c37.96,0 57.01,13.26 57.01,39.79 0,18.77 -6.63,33.31 -20.04,43.75 -13.4,10.3 -32.17,15.52 -56.44,15.52l-75.21 0c-30.48,0 -53.63,-5.93 -69.29,-17.64 -15.8,-11.71 -23.71,-28.64 -23.71,-50.94 0,-15.8 5.65,-37.68 16.94,-65.76l83.11 -204.19c16.79,-41.34 25.26,-69.71 25.26,-85.09 0,-12.42 -5.64,-23.56 -16.93,-33.3 -11.29,-9.74 -24.27,-14.68 -38.95,-14.68 -27.52,0 -52.49,11.86 -74.93,35.71 -22.29,23.7 -33.44,50.37 -33.44,79.72 0,17.08 3.81,30.34 11.43,39.66 7.62,9.31 21.59,18.06 41.91,25.96 18.06,7.2 27.09,19.33 27.09,36.69 0,15.95 -5.93,29.07 -17.92,39.37 -11.99,10.3 -26.95,15.52 -44.87,15.52 -34.43,0 -63.93,-14.67 -88.34,-43.88 -24.55,-29.35 -36.83,-64.49 -36.83,-105.41 0,-59.69 22.58,-112.05 67.73,-156.78 45.16,-44.87 97.65,-67.31 157.63,-67.31 45.15,0 82.83,13.27 113.03,39.65 30.05,26.39 45.15,59.27 45.15,98.64 0,28.36 -7.19,60.26 -21.45,95.39l-97.36 239.61zm281.09 9.31l43.32 0c35,0 52.49,12.28 52.49,36.69 0,16.65 -6.06,29.78 -18.34,39.09 -12.28,9.31 -29.49,13.97 -51.51,13.97l-74.36 0c-20.32,0 -36.27,-4.8 -48.12,-14.53 -11.71,-9.6 -17.64,-22.58 -17.64,-38.81 0,-8.61 3.95,-22.72 11.99,-42.62l166.52 -411.2 4.51 -11.28c12.7,-30.91 32.88,-46.29 60.68,-46.29 11.57,0 21.31,3.81 29.49,11.57 8.05,7.76 12.14,16.94 12.14,27.8 0,8.19 -2.12,17.64 -6.21,28.08l-4.52 11.29 -160.44 396.24zm357.57 101.6l49.68 0c34.85,0 52.35,12.14 52.35,36.27 0,16.65 -6.21,29.77 -18.63,39.23 -12.28,9.45 -29.35,14.25 -51.22,14.25l-68.58 0 -17.36 42.76c-42.19,103.57 -103.86,155.36 -185,155.36 -42.47,0 -77.89,-13.12 -106.11,-39.23 -28.37,-26.24 -42.48,-59.12 -42.48,-98.49 0,-25.69 6.78,-49.68 20.46,-72.25 13.69,-22.44 32.46,-40.22 56.17,-53.48 29.35,-16.23 68.58,-24.42 118.11,-24.42l88.9 0 12.7 -32.59c-17.22,10.44 -33.59,15.66 -49.11,15.66 -29.35,0 -53.34,-10.16 -71.54,-30.62 -18.35,-20.32 -27.52,-46.85 -27.52,-79.59 0,-52.92 18.63,-100.47 55.74,-142.8 37.25,-42.48 78.88,-63.64 125.17,-63.64 33.86,0 59.26,10.86 76.05,32.45 12.99,-21.59 31.33,-32.45 55.04,-32.45 11.71,0 21.59,3.81 29.63,11.43 8.19,7.47 12.28,16.65 12.28,27.37 0,8.61 -3.53,21.73 -10.73,39.37l-104 255.41zm-53.34 -124.32l33.59 -81.42c2.68,-6.91 4.09,-12.56 4.09,-16.93 0,-8.19 -3.67,-15.1 -11.01,-20.6 -7.33,-5.51 -16.51,-8.19 -27.51,-8.19 -19.9,0 -38.95,11.29 -57.01,34.01 -18.2,22.58 -27.24,46.57 -27.24,71.83 0,28.78 13.55,43.18 40.64,43.18 23.57,0 38.25,-7.34 44.45,-21.88zm-87.2 214.07l-71.55 0c-24.97,0 -44.31,5.22 -58.13,15.8 -13.69,10.59 -20.61,25.41 -20.61,44.6 0,13.12 4.66,24.27 14.11,33.44 9.46,9.17 21.03,13.69 34.86,13.69 19.9,0 37.39,-7.9 52.35,-23.71 14.96,-15.94 31.19,-43.74 48.97,-83.82zm380.71 -191.35l46.71 0c34.57,0 51.79,12.28 51.79,36.69 0,16.65 -6.07,29.78 -18.35,39.09 -12.13,9.31 -29.21,13.97 -51.22,13.97l-65.76 0c-24.27,0 -43.32,-4.94 -57.15,-14.96 -13.97,-9.88 -20.88,-23.42 -20.88,-40.5 0,-9.17 2.96,-20.74 8.75,-34.71l68.29 -168.06 4.52 -11.72c12.7,-31.18 33.02,-46.7 61.24,-46.7 11.57,0 21.59,3.81 30.06,11.57 8.32,7.76 12.56,17.07 12.56,27.8 0,8.89 -3.67,22.43 -11.15,40.64l-59.41 146.89zm54.47 -358.99c16.09,0 29.63,5.65 40.78,16.8 11.15,11.15 16.79,24.69 16.79,40.78 0,15.94 -5.64,29.63 -16.79,40.78 -11.15,11.15 -24.69,16.79 -40.78,16.79 -15.94,0 -29.63,-5.64 -40.78,-16.79 -11.15,-11.15 -16.79,-24.84 -16.79,-40.78 0,-16.09 5.64,-29.63 16.79,-40.78 11.15,-11.15 24.84,-16.8 40.78,-16.8zm214.21 358.99l104.14 0c35,0 52.49,12.28 52.49,36.69 0,16.65 -6.2,29.78 -18.48,39.09 -12.28,9.31 -29.63,13.97 -51.79,13.97l-192.62 0c-16.93,0 -30.48,-4.23 -40.5,-12.84 -10.01,-8.47 -14.95,-20.04 -14.95,-34.71 0,-14.12 9.17,-30.06 27.65,-47.98l134.91 -130.25 -46 1.41 -10.45 0c-30.05,0 -45.15,-12.42 -45.15,-37.25 0,-15.38 5.92,-28.51 17.92,-39.09 11.85,-10.58 26.39,-15.94 43.6,-15.94l10.3 0 128.56 0c38.52,0 57.85,16.36 57.85,48.96 0,16.79 -8.75,33.87 -26.1,50.94l-131.38 127zm499.44 -227.15c12.28,-3.39 23.29,-5.08 33.02,-5.08 31.89,0 57.82,11.89 77.61,35.7 19.85,23.87 29.78,54.75 29.78,92.71 0,73.52 -28.32,130.89 -85.09,171.87 -19.84,14.32 -40.51,21.45 -61.95,21.45l-39.37 0c-27.22,0 -50.52,-9.74 -69.85,-29.35 -11.43,19.61 -29.63,29.35 -54.33,29.35 -11.85,0 -21.84,-3.85 -30.06,-11.57 -8.28,-7.79 -12.41,-17.08 -12.41,-28.08 0,-8.33 2.28,-17.91 6.63,-28.65l4.51 -11.15 172.87 -427.42 4.51 -11.57c12.18,-31.24 32.88,-46.29 59.83,-46.29 12.42,0 22.72,3.82 31.19,11.43 8.31,7.48 12.56,16.79 12.56,27.8 0,8.61 -2.47,17.99 -6.63,28.65l-4.52 11.57 -68.3 168.63zm-82.27 202.77c13.69,17.78 29.92,26.67 48.41,26.67 13.26,0 24.38,-3.72 33.58,-11.14 12.66,-10.2 23.77,-25.24 33.3,-45.3 9.51,-20.01 14.25,-37.96 14.25,-53.91 0,-12.41 -3.49,-22.47 -10.72,-30.34 -7.16,-7.79 -16.65,-11.71 -28.22,-11.71 -26.25,0 -47.16,19.33 -62.94,58l-27.66 67.73zm355.46 24.13l43.32 0c35,0 52.49,12.28 52.49,36.69 0,16.65 -6.06,29.78 -18.34,39.09 -12.28,9.31 -29.5,13.97 -51.51,13.97l-74.36 0c-20.31,0 -36.27,-4.81 -48.12,-14.53 -11.7,-9.6 -17.64,-22.58 -17.64,-38.81 0,-8.61 3.93,-22.73 11.99,-42.62l166.52 -411.2 4.51 -11.28c12.41,-31.03 32.88,-46.29 60.68,-46.29 11.57,0 21.35,3.78 29.49,11.57 8.08,7.72 12.14,16.94 12.14,27.8 0,8.19 -2.05,17.68 -6.21,28.08l-4.52 11.29 -160.44 396.24zm305.5 -231.98c39.94,0 72.83,12.7 98.5,37.95 25.82,25.39 38.66,57.58 38.66,96.67 0,29.49 -6.71,58.73 -20.17,87.77 -13.48,29.09 -30.95,52.35 -52.5,69.57 -14.28,11.41 -29.2,19.12 -44.45,23.42 -15.22,4.29 -36.69,6.35 -64.2,6.35 -45.02,0 -75.28,-5.29 -91.02,-16.09 -36.88,-25.32 -55.32,-62.79 -55.32,-112.32 0,-52.35 18.88,-97.69 56.59,-135.89 37.78,-38.27 82.41,-57.43 133.91,-57.43zm-10.01 88.05c-20.32,0 -38.77,10.06 -55.46,30.2 -16.74,20.21 -25.12,42.33 -25.12,66.6 0,32.03 17.78,47.98 53.48,47.98 20.89,0 36.79,-6.54 48.12,-19.47 18.58,-21.21 27.94,-45.44 27.94,-72.82 0,-15.66 -4.55,-28.33 -13.55,-37.96 -9.06,-9.69 -20.88,-14.53 -35.41,-14.53zm412.6 245.53l49.68 0c34.85,0 52.35,12.14 52.35,36.27 0,16.65 -6.24,29.74 -18.63,39.23 -12.3,9.41 -29.36,14.25 -51.22,14.25l-68.58 0 -17.36 42.76c-42.06,103.61 -103.86,155.36 -185,155.36 -42.47,0 -77.89,-13.13 -106.11,-39.23 -28.36,-26.24 -42.48,-59.12 -42.48,-98.49 0,-25.69 6.75,-49.7 20.46,-72.25 13.65,-22.45 32.43,-40.29 56.17,-53.48 29.31,-16.29 68.58,-24.42 118.11,-24.42l88.9 0 12.7 -32.59c-17.22,10.44 -33.59,15.66 -49.11,15.66 -29.35,0 -53.27,-10.23 -71.54,-30.62 -18.27,-20.38 -27.52,-46.85 -27.52,-79.59 0,-52.92 18.63,-100.48 55.74,-142.8 37.24,-42.48 78.88,-63.64 125.17,-63.64 33.86,0 59.26,10.86 76.05,32.45 12.99,-21.59 31.33,-32.45 55.04,-32.45 11.71,0 21.52,3.89 29.63,11.43 8.11,7.54 12.28,16.65 12.28,27.37 0,8.61 -3.55,21.73 -10.73,39.37l-104 255.41zm-53.34 -124.32l33.59 -81.42c2.83,-6.85 4.09,-12.56 4.09,-16.93 0,-8.19 -3.68,-15.1 -11.01,-20.6 -7.33,-5.5 -16.51,-8.19 -27.51,-8.19 -19.9,0 -38.88,11.36 -57.01,34.01 -18.12,22.64 -27.24,46.57 -27.24,71.83 0,28.78 13.55,43.18 40.64,43.18 23.57,0 38.42,-7.27 44.45,-21.88zm-87.2 214.07l-71.55 0c-24.96,0 -44.34,5.19 -58.13,15.8 -13.71,10.55 -20.61,25.41 -20.61,44.6 0,13.12 4.66,24.28 14.11,33.44 9.45,9.17 21.03,13.69 34.86,13.69 19.9,0 37.43,-7.87 52.35,-23.71 14.99,-15.9 31.19,-43.74 48.97,-83.82z"/>
   <g>
    <path class="fil2" d="M322.48 321.17l73.64 -259.66 275.19 0 -55.66 195.99c-0.59,1.13 -1.07,2.31 -1.43,3.53l-16.98 60.14 -274.76 0z"/>
   </g>
  </g>
 </g>
</svg>
